<?xml version="1.0" encoding="UTF-8"?>
<svg width="120px" height="93px" viewBox="0 0 120 93" version="1.1" xmlns="http://www.w3.org/2000/svg" xmlns:xlink="http://www.w3.org/1999/xlink">
    <!-- Generator: sketchtool 64 (101010) - https://sketch.com -->
    <title>0CAEE6CF-76C4-4378-9543-7447CF82E698</title>
    <desc>Created with sketchtool.</desc>
    <g id="Courses" stroke="none" stroke-width="1" fill="none" fill-rule="evenodd">
        <g id="Courses---No-courses--and-modules-results---Desktop" transform="translate(-660.000000, -845.000000)" fill-rule="nonzero">
            <g id="no-results" transform="translate(565.000000, 845.000000)">
                <g id="Caritas-Beto-12" transform="translate(95.000000, 0.000000)">
                    <polygon id="Path" fill="#FFFFFF" points="18.6298211 76.8736573 26.8461233 16.7947059 55.3908549 1.86 117.747913 23.530665 118.458847 62.4860102 111.203976 73.538977 56.7745527 91.4515857"></polygon>
                    <polyline id="Path" fill="#E9EBED" points="105.492644 75.1254476 105.492644 75.1254476 110.438171 60.6450384 107.79006 25.1242711 75.1872763 8.59595908 117.528429 23.3118414 118.236978 62.2671867 110.984493 73.3201535"></polyline>
                    <path d="M92.0588469,64.7955499 L86.566998,57.236624 L56.8437376,59.1394373 L20.9129225,58.6304348 L18.3578529,69.3551662 C33.9888668,72.0476471 43.4409543,72.0857033 47.6588469,71.8740153 L64.838171,81.6758824 C65.3677932,81.977954 66.0214712,81.9565473 66.5296223,81.6211765 L92.0588469,64.7955499 Z" id="Path" fill="#E9EBED"></path>
                    <path d="M56.5526839,92.7764194 C56.3642147,92.7764194 56.1757455,92.7431202 55.9968191,92.6741432 L17.8544732,78.0962148 C17.1817097,77.839335 16.7761431,77.1543223 16.8739563,76.4431458 L25.0902584,16.3641944 C25.1570577,15.8694629 25.4624254,15.4365729 25.906163,15.2034783 L54.4508946,0.268772379 C54.8302187,0.0689769821 55.2763419,0.038056266 55.6819085,0.178388747 L118.038966,21.8514322 C118.652087,22.0654987 119.067197,22.6363427 119.079125,23.2832992 L119.790243,62.2386445 C119.794831,62.5478517 119.706561,62.8546803 119.537177,63.1139386 L112.282306,74.1669054 C112.089066,74.4594629 111.805169,74.6782864 111.471173,74.7876982 L57.0393638,92.7003069 C56.8819085,92.7502558 56.7172962,92.7764194 56.5526839,92.7764194 Z M20.111332,75.6463427 L56.5908549,89.5892072 L109.982505,72.0191049 L116.679125,61.8176471 L115.996819,24.4154731 L55.2954274,3.31803069 L28.055666,17.5724808 L20.111332,75.6463427 Z" id="Shape" fill="#242C3A"></path>
                    <g id="Group" transform="translate(0.000000, 41.624041)">
                        <path d="M82.7833002,10.5510997 L66.1550696,12.370665 L55.1475149,5.30171355 L41.6206759,10.8983632 L1.73200795,1.65544757 L5.40596421,20.7596931 C5.40596421,20.7596931 11.8497018,24.2228133 46.7833002,24.8578772 L65.9928429,36.6101279 L91.2405567,21.8585678 L82.7833002,10.5510997 Z" id="Path" fill="#A7AFB9"></path>
                        <path d="M61.7463221,23.5163939 C37.9610338,23.6971611 4.60437376,16.5877749 4.60437376,16.5877749 L5.40596421,20.7596931 C27.7908549,24.5653197 43.8942346,25.2741176 55.32167,24.6366752 C60.1813121,24.3393606 61.7463221,24.111023 61.7463221,23.5163939 Z" id="Path" fill="#7C8595"></path>
                        <polygon id="Path" fill="#7C8595" points="65.7017893 35.9346292 88.8310139 18.176624 90.9017893 22.2819437 65.9928429 36.6101279"></polygon>
                        <path d="M4.85964215,17.9173657 C4.83101392,17.7746547 5.24612326,5.12570332 5.24612326,5.12570332 L23.3248509,7.4542711 L1.73439364,1.65544757 L4.85964215,17.9173657 Z" id="Path" fill="#FFFFFF"></path>
                        <polygon id="Path" fill="#FFFFFF" points="45.645328 12.0709719 56.4691849 6.22695652 55.1069583 5.33263427 41.9332008 11.1766496"></polygon>
                        <g fill="#242C3A" id="Path">
                            <path d="M51.9840954,13.9951918 C49.867992,13.5741944 47.7542744,13.1413043 45.6429423,12.7060358 L39.304175,11.3978517 L26.6409543,8.73391304 L13.9920477,6.00813299 C9.77654076,5.09240409 5.55387674,4.21948849 1.35984095,3.21337596 L3.30894632,1.35337596 L3.76699801,3.74140665 L4.21073559,6.13181586 L5.10059642,10.9126343 L5.98568588,15.6982097 C6.28389662,17.2918159 6.57733598,18.885422 6.85646123,20.4837852 L5.68986083,19.3159335 L5.68986083,19.3159335 C8.28310139,19.8130435 10.9264414,20.2340409 13.5673956,20.6407673 C16.2083499,21.0379795 18.8516899,21.4185422 21.5021869,21.749156 C24.1526839,22.0845269 26.8055666,22.3723274 29.4656064,22.6339642 C32.1232604,22.8979795 34.7833002,23.1263171 37.4457256,23.2999488 C40.1081511,23.4735806 42.7705765,23.5948849 45.4353877,23.6448338 C46.7666004,23.673376 48.0978131,23.6924041 49.4314115,23.6876471 C50.7650099,23.6876471 52.0890656,23.6543478 53.4393638,23.6281841 C56.1256461,23.5687212 58.7976143,23.5330435 61.4624254,23.4164962 C62.1757455,23.3784399 62.9821074,23.4236317 63.7240557,23.6234271 C64.473161,23.8137084 65.172167,24.1419437 65.794831,24.543913 C67.0473161,25.3502302 68.0230616,26.4134271 68.8437376,27.5337084 C69.0584493,27.8286445 68.9940358,28.2401279 68.7005964,28.4565729 C68.4214712,28.6587468 68.0373757,28.613555 67.815507,28.3614322 L67.8083499,28.3542967 C66.9590457,27.3886189 66.0214712,26.5085678 64.9622266,25.9353453 C64.4349901,25.6475448 63.8838966,25.4429923 63.3256461,25.3288235 C62.7602386,25.2146547 62.2091451,25.2098977 61.5864811,25.2741176 C60.2409543,25.3930435 58.8930417,25.4929412 57.5475149,25.5809463 C56.2019881,25.6665729 54.8588469,25.7284143 53.5180915,25.7997698 C52.184493,25.8687468 50.8270378,25.9424808 49.4743539,25.9852941 C48.12167,26.0281074 46.7689861,26.0614066 45.4163022,26.0637852 C42.7109344,26.0685422 40.0055666,25.9995652 37.3073559,25.8806394 C34.6067594,25.7617136 31.9133201,25.5833248 29.2222664,25.3716368 C26.5335984,25.1551918 23.8473161,24.8864194 21.1658052,24.5819693 C18.4842942,24.2751407 15.805169,23.9397698 13.1355865,23.540179 C10.4683897,23.1405882 7.80357853,22.7386189 5.12683897,22.2105882 L5.12683897,22.2105882 C4.5304175,22.103555 4.08667992,21.6468798 3.96978131,21.0903069 L3.96023857,21.0403581 C3.62624254,19.4538875 3.30894632,17.8626598 2.99403579,16.2738107 L2.0445328,11.5025064 L1.09741551,6.73120205 L0.62027833,4.34554987 L0.159840954,1.95751918 C-0.00715705765,1.08936061 0.563021869,0.249744246 1.43379722,0.0832480818 C1.66043738,0.0404347826 1.88469185,0.0451918159 2.09701789,0.095140665 L2.10894632,0.0975191816 C6.30775348,1.08222506 10.473161,2.19774936 14.650497,3.27283887 L27.1753479,6.51951407 L39.6858847,9.82803069 L45.933996,11.5072634 C48.0166998,12.0662148 50.0994036,12.6299233 52.1797217,13.2031458 C52.3968191,13.2626087 52.5256461,13.4885678 52.466004,13.7050128 C52.4015905,13.9119437 52.1916501,14.0380051 51.9840954,13.9951918 Z"></path>
                            <path d="M41.0576541,10.5320716 L54.5153082,3.90314578 C54.9972167,3.66529412 55.5530815,3.7342711 55.9562624,4.03634271 L55.9610338,4.04109974 L66.3387674,11.8473913 L65.8616302,11.7332225 L82.6091451,9.01457801 C83.1530815,8.92657289 83.673161,9.157289 83.9809145,9.56639386 L84.0262425,9.62585678 L92.483499,20.9333248 L92.5025845,20.9594885 C93.0059642,21.6326087 92.8675944,22.5840153 92.1924453,23.0835038 C92.1399602,23.1215601 92.0803181,23.1596164 92.0254473,23.1905371 L66.4747515,37.4283376 L66.4485089,37.4426087 C66.1383698,37.6138619 65.7733598,37.5924552 65.4918489,37.4188235 L46.4135189,25.4572634 C46.0819085,25.2503325 45.9840954,24.8150639 46.1916501,24.4844501 C46.3968191,24.1585934 46.8238569,24.0586957 47.1530815,24.253734 L66.4914513,35.7942967 L65.5085487,35.7847826 L90.455666,20.5218414 L89.9976143,22.7790537 L81.5403579,11.4715857 L82.9574553,12.0828645 L66.0214712,13.1555754 C65.8520875,13.1650895 65.6922465,13.1270332 65.5562624,13.0485422 L65.5467197,13.0414066 L54.2552684,6.61941176 L55.700994,6.75736573 L41.4751491,11.5310486 C41.1888668,11.6261893 40.8811133,11.4739642 40.7856859,11.1885422 C40.6950298,10.9316624 40.8166998,10.6509974 41.0576541,10.5320716 Z"></path>
                        </g>
                    </g>
                    <path d="M61.4910537,23.038312 L67.3860835,26.1731969 L66.8898608,26.0233504 L75.561829,27.0104348 C75.8266402,27.0413555 76.0151093,27.2792072 75.9864811,27.540844 C75.9578529,27.7834527 75.7550696,27.9618414 75.5188867,27.9665985 L66.7920477,28.1473657 C66.6131213,28.1521228 66.4485089,28.0997954 66.3101392,28.0070332 L66.295825,27.9975192 L60.7252485,24.3203325 C60.3793241,24.0919949 60.2838966,23.6281841 60.5129225,23.2832992 C60.7276342,22.959821 61.154672,22.8599233 61.4910537,23.038312 Z" id="Path" fill="#242C3A"></path>
                    <path d="M48.9733598,20.7692072 L44.9988072,24.8792839 L44.9797217,24.9006905 C44.8652087,25.0196164 44.7196819,25.0933504 44.566998,25.1218926 L38.2282306,26.320665 C37.9658052,26.3706138 37.7129225,26.1993606 37.6652087,25.9377238 C37.6222664,25.7070077 37.7510934,25.4810486 37.9658052,25.400179 L43.982505,23.0763683 L43.5506958,23.318977 L47.9522863,19.672711 C48.2719682,19.4086957 48.744334,19.451509 49.0091451,19.7702302 C49.2572565,20.0675448 49.2357853,20.4980563 48.9733598,20.7692072 Z" id="Path" fill="#242C3A"></path>
                    <path d="M62.4023857,43.5149616 L68.1328032,45.4558312 L67.4266402,45.4106394 L76.0389662,43.5744246 C76.3204771,43.5149616 76.5996024,43.6933504 76.6592445,43.9740153 C76.7141153,44.2332737 76.5662028,44.4901535 76.3204771,44.5757801 L68.0015905,47.4609207 L67.989662,47.4656777 C67.7534791,47.5489258 67.5029821,47.5227621 67.2954274,47.4157289 L61.9252485,44.635243 C61.6270378,44.4806394 61.5101392,44.1119693 61.6652087,43.8146547 C61.8059642,43.5411253 62.1232604,43.419821 62.4023857,43.5149616 Z" id="Path" fill="#242C3A"></path>
                    <path d="M37.2500994,43.5458824 L41.6779324,45.5081586 L40.8667992,45.4106394 L49.4791252,43.5744246 C49.7606362,43.5149616 50.0397614,43.6933504 50.0994036,43.9740153 C50.1542744,44.2332737 50.0063618,44.4901535 49.7606362,44.5757801 L41.4417495,47.4609207 L41.4131213,47.4704348 C41.1411531,47.5655754 40.8500994,47.5132481 40.6306163,47.3634015 L36.6536779,44.6043223 C36.3769384,44.4116624 36.3077535,44.0310997 36.500994,43.7551918 C36.6703777,43.5102046 36.987674,43.4269565 37.2500994,43.5458824 Z" id="Path" fill="#242C3A"></path>
                    <g id="Group" transform="translate(81.590457, 1.427110)">
                        <polygon id="Path" fill="#20CAD9" points="17.6493042 18.319335 14.612326 22.748133 9.6500994 24.4345013 4.69025845 22.748133 1.65089463 18.319335 2.0612326 13.3125575 9.6500994 1.30580563 17.2389662 13.3125575"></polygon>
                        <path d="M19.1475149,18.7165473 C18.0906561,20.3601023 17.0027833,22.0036573 15.8910537,23.6210486 C15.6954274,23.9088491 15.4163022,24.1086445 15.1109344,24.2109207 L10.1487078,25.897289 C9.81232604,26.0114578 9.46163022,26.0043223 9.14671968,25.897289 L4.18687873,24.2109207 C3.85765408,24.0991304 3.59045726,23.8874425 3.40675944,23.6210486 L0.367395626,19.1922506 C0.157455268,18.8878005 0.0739562624,18.5334015 0.102584493,18.1932737 L0.512922465,13.1864962 L0.517693837,13.1413043 C0.536779324,12.9010742 0.622664016,12.6751151 0.746719682,12.4872123 L8.71252485,0.71831202 C9.06083499,0.20455243 9.76222664,0.0689769821 10.2775348,0.416240409 C10.3992048,0.499488491 10.504175,0.604143223 10.5805169,0.71831202 L18.5463221,12.4872123 C18.6823062,12.6870077 18.7562624,12.9105882 18.7753479,13.1341688 L18.7801193,13.1864962 C18.9351889,15.027468 19.0568588,16.8803325 19.1475149,18.7165473 Z M16.1510934,17.9245013 C15.9697813,16.4212788 15.8170974,14.9370844 15.6930417,13.4386189 L15.926839,14.1379028 L8.71491054,1.89329923 L10.5852883,1.89329923 L3.37335984,14.1379028 L3.60715706,13.4386189 L3.19681909,18.4453964 L2.93200795,17.4464194 L5.97137177,21.8752174 L5.19125249,21.2853453 L10.1510934,22.9717136 L9.15149105,22.9717136 L14.1137177,21.2853453 L13.3335984,21.8752174 C14.2473161,20.5408696 15.182505,19.2326854 16.1510934,17.9245013 Z" id="Shape" fill="#242C3A"></path>
                    </g>
                </g>
            </g>
        </g>
    </g>
</svg>